<?xml version="1.0" encoding="UTF-8"?>
<svg xmlns="http://www.w3.org/2000/svg" viewBox="0 0 256 256" role="img" aria-label="lyra logo">
  <rect x="0" y="0" width="256" height="256" rx="60" ry="60" fill="#FFFFFF"/>
  <path d="M50.88 171.21L42.39 171.21Q34.27 171.21 30.46 167.15Q26.65 163.09 26.65 155.71L26.65 155.71L26.65 80.19L42.39 80.19L42.39 158.66L50.88 158.66L50.88 171.21ZM90.12 140.95L101.31 107.00L116.07 107.00L90.24 182.65Q89.01 186.09 87.47 188.61Q85.93 191.14 83.84 192.73Q81.75 194.33 78.80 195.07Q75.85 195.81 71.91 195.81L71.91 195.81L62.44 195.81L62.44 183.26L74.00 183.26L76.96 174.28L53.95 107.00L69.58 107.00L80.77 140.95L84.95 157.19L85.69 157.19L90.12 140.95ZM142.15 171.21L126.40 171.21L126.40 107.00L142.15 107.00L142.15 120.29L142.76 120.29Q143.38 117.70 144.67 115.31Q145.96 112.91 148.05 111.06Q150.14 109.22 153.03 108.11Q155.92 107.00 159.73 107.00L159.73 107.00L163.18 107.00L163.18 121.89L158.26 121.89Q150.26 121.89 146.20 124.22Q142.15 126.56 142.15 131.85L142.15 131.85L142.15 171.21ZM229.35 171.21L220.62 171.21Q215.45 171.21 212.44 168.20Q209.43 165.18 208.69 160.14L208.69 160.14L207.95 160.14Q206.35 166.41 201.43 169.55Q196.51 172.69 189.25 172.69L189.25 172.69Q179.41 172.69 174.13 167.52Q168.84 162.35 168.84 153.74L168.84 153.74Q168.84 143.78 175.97 138.92Q183.10 134.06 196.26 134.06L196.26 134.06L207.21 134.06L207.21 129.39Q207.21 123.98 204.38 121.03Q201.55 118.07 195.28 118.07L195.28 118.07Q189.75 118.07 186.36 120.47Q182.98 122.87 180.64 126.19L180.64 126.19L171.30 117.83Q174.86 112.29 180.77 108.91Q186.67 105.53 196.39 105.53L196.39 105.53Q209.43 105.53 216.19 111.43Q222.96 117.34 222.96 128.41L222.96 128.41L222.96 158.66L229.35 158.66L229.35 171.21ZM194.54 161.25L194.54 161.25Q199.83 161.25 203.52 158.91Q207.21 156.57 207.21 152.02L207.21 152.02L207.21 143.53L197.13 143.53Q184.83 143.53 184.83 151.41L184.83 151.41L184.83 153.50Q184.83 157.43 187.35 159.34Q189.87 161.25 194.54 161.25Z" fill="#DC2626"/>
</svg>
